<svg width="184" height="99" viewBox="0 0 184 99" fill="none" xmlns="http://www.w3.org/2000/svg">
<path d="M50.403 88.3V88.6C50.403 90.6667 50.7363 92.0333 51.403 92.7C52.0696 93.3667 53.4363 93.7 55.503 93.7C57.503 93.7 58.803 93.3333 59.403 92.6C60.0696 91.9333 60.403 90.6 60.403 88.6V83.5L58.103 86H55.203C52.1363 86 49.6696 85.1333 47.803 83.4C46.003 81.6 45.103 79.3667 45.103 76.7V45.3C45.103 42.2333 45.9696 39.9333 47.703 38.4C49.503 36.8 52.0363 36 55.303 36H55.503C56.3696 36 57.203 36.1 58.003 36.3C58.8696 36.5 59.6696 36.8 60.403 37.2V36H65.703V88.6C65.703 95.2 62.503 98.6667 56.103 99H55.603H55.403H55.203H54.603C48.2696 98.6667 45.103 95.2 45.103 88.6V88.3H50.403ZM53.403 41.3C52.203 41.3 51.403 41.5 51.003 41.9C50.603 42.3 50.403 43.1 50.403 44.3V77.7C50.403 78.9 50.603 79.7 51.003 80.1C51.403 80.5 52.203 80.7 53.403 80.7H60.403V41.3H53.403ZM75.0123 88.3V88.6C75.0123 90.6667 75.3457 92.0333 76.0123 92.7C76.679 93.3667 78.0457 93.7 80.1123 93.7C82.1123 93.7 83.4123 93.3333 84.0123 92.6C84.679 91.9333 85.0123 90.6 85.0123 88.6V83.5L82.7123 86H79.8123C76.7457 86 74.279 85.1333 72.4123 83.4C70.6123 81.6 69.7123 79.3667 69.7123 76.7V45.3C69.7123 42.2333 70.579 39.9333 72.3123 38.4C74.1123 36.8 76.6457 36 79.9123 36H80.1123C80.979 36 81.8123 36.1 82.6123 36.3C83.479 36.5 84.279 36.8 85.0123 37.2V36H90.3123V88.6C90.3123 95.2 87.1123 98.6667 80.7123 99H80.2123H80.0123H79.8123H79.2123C72.879 98.6667 69.7123 95.2 69.7123 88.6V88.3H75.0123ZM78.0123 41.3C76.8123 41.3 76.0123 41.5 75.6123 41.9C75.2123 42.3 75.0123 43.1 75.0123 44.3V77.7C75.0123 78.9 75.2123 79.7 75.6123 80.1C76.0123 80.5 76.8123 80.7 78.0123 80.7H85.0123V41.3H78.0123ZM99.9217 36V39.8L102.222 36H107.322V41.9H99.9217V86H94.6217V41.3H92.8217L93.6217 36H99.9217ZM109.849 76V46C109.849 39.0667 113.349 35.6 120.349 35.6H121.449C128.449 35.6 131.949 39.0667 131.949 46V65.2H115.149V76C115.149 78.0667 115.482 79.4333 116.149 80.1C116.882 80.7667 118.282 81.1 120.349 81.1H121.449C123.582 81.1 124.982 80.7667 125.649 80.1C126.316 79.4333 126.649 78.0667 126.649 76V71.2H131.949V76C131.949 82.9333 128.449 86.4 121.449 86.4H120.349C113.349 86.4 109.849 82.9333 109.849 76ZM126.649 46C126.649 43.9333 126.316 42.5667 125.649 41.9C124.982 41.2333 123.582 40.9 121.449 40.9H120.349C118.282 40.9 116.882 41.2333 116.149 41.9C115.482 42.5667 115.149 43.9333 115.149 46V59.9H126.649V46ZM157.623 86H152.323V44.3C152.323 43.1 152.123 42.3 151.723 41.9C151.323 41.5 150.523 41.3 149.323 41.3H142.523V86H137.223V41.3H135.423L136.223 36H142.523V38.3L144.623 36H147.523C150.99 36 153.657 37.1333 155.523 39.4L158.623 36H162.523C165.59 36 168.023 36.8667 169.823 38.6C171.69 40.3333 172.623 42.5667 172.623 45.3V80.7H174.623L173.623 86H167.323V44.3C167.323 43.1 167.123 42.3 166.723 41.9C166.323 41.5 165.523 41.3 164.323 41.3H156.823C157.357 42.5 157.623 43.8333 157.623 45.3V86Z" fill="url(#paint0_linear_57_2)"/>
<path d="M2.10297 92L11.103 78M34.103 71.5V38.5L11.103 78M34.103 71.5C32.503 71.5 11.103 78 11.103 78M34.103 71.5V92.5" stroke="url(#paint1_linear_57_2)" stroke-width="5"/>
<defs>
<linearGradient id="paint0_linear_57_2" x1="113.103" y1="0" x2="113.103" y2="85" gradientUnits="userSpaceOnUse">
<stop offset="0.653846" stop-color="#8300AE"/>
<stop offset="0.793269" stop-color="#46005D"/>
</linearGradient>
<linearGradient id="paint1_linear_57_2" x1="18.103" y1="38.5" x2="18.103" y2="92.5" gradientUnits="userSpaceOnUse">
<stop offset="0.418269" stop-color="#6C0091"/>
<stop offset="0.533654" stop-color="#46005D"/>
</linearGradient>
</defs>
</svg>
